<mxfile host="app.diagrams.net" modified="2024-07-18T03:28:13.589Z" agent="Mozilla/5.0 (Windows NT 10.0; Win64; x64) AppleWebKit/537.36 (KHTML, like Gecko) Chrome/126.0.0.0 Safari/537.36" etag="3yySGSNqVhUSLexLWGYO" version="24.3.1" type="github">
  <diagram name="第 1 页" id="nsINtxGWiJ4ZphKbCXR5">
    <mxGraphModel dx="1621" dy="1068" grid="0" gridSize="10" guides="1" tooltips="1" connect="1" arrows="1" fold="1" page="0" pageScale="1" pageWidth="827" pageHeight="1169" math="0" shadow="0">
      <root>
        <mxCell id="0" />
        <mxCell id="1" parent="0" />
        <mxCell id="EW5mezHFkuSFeGB_xYiB-1" value="卫生和社会保障部" style="rounded=0;whiteSpace=wrap;html=1;" vertex="1" parent="1">
          <mxGeometry x="141" y="-101" width="120" height="60" as="geometry" />
        </mxCell>
        <mxCell id="EW5mezHFkuSFeGB_xYiB-2" value="部长办公室" style="rounded=0;whiteSpace=wrap;html=1;" vertex="1" parent="1">
          <mxGeometry x="-341" y="26" width="120" height="60" as="geometry" />
        </mxCell>
        <mxCell id="EW5mezHFkuSFeGB_xYiB-3" value="公共卫生和&lt;div&gt;服务提供副部&lt;/div&gt;" style="rounded=0;whiteSpace=wrap;html=1;" vertex="1" parent="1">
          <mxGeometry x="-100" y="26" width="120" height="60" as="geometry" />
        </mxCell>
        <mxCell id="EW5mezHFkuSFeGB_xYiB-4" value="社会保障副部" style="rounded=0;whiteSpace=wrap;html=1;" vertex="1" parent="1">
          <mxGeometry x="141" y="26" width="120" height="60" as="geometry" />
        </mxCell>
        <mxCell id="EW5mezHFkuSFeGB_xYiB-5" value="秘书长" style="rounded=0;whiteSpace=wrap;html=1;" vertex="1" parent="1">
          <mxGeometry x="381" y="26" width="120" height="60" as="geometry" />
        </mxCell>
        <mxCell id="EW5mezHFkuSFeGB_xYiB-6" value="附属实体" style="rounded=0;whiteSpace=wrap;html=1;" vertex="1" parent="1">
          <mxGeometry x="622" y="26" width="120" height="60" as="geometry" />
        </mxCell>
        <mxCell id="EW5mezHFkuSFeGB_xYiB-9" value="法律事务局" style="rounded=0;whiteSpace=wrap;html=1;" vertex="1" parent="1">
          <mxGeometry x="-292" y="125" width="120" height="50" as="geometry" />
        </mxCell>
        <mxCell id="EW5mezHFkuSFeGB_xYiB-10" value="&lt;div&gt;质量管理办公室&lt;/div&gt;" style="rounded=0;whiteSpace=wrap;html=1;" vertex="1" parent="1">
          <mxGeometry x="-292" y="191" width="120" height="50" as="geometry" />
        </mxCell>
        <mxCell id="EW5mezHFkuSFeGB_xYiB-11" value="&lt;div&gt;&lt;span style=&quot;background-color: initial;&quot;&gt;社会促进办公室&lt;/span&gt;&lt;/div&gt;&lt;div&gt;&lt;/div&gt;" style="rounded=0;whiteSpace=wrap;html=1;" vertex="1" parent="1">
          <mxGeometry x="-292" y="257" width="120" height="50" as="geometry" />
        </mxCell>
        <mxCell id="EW5mezHFkuSFeGB_xYiB-12" value="&lt;div&gt;&lt;div&gt;&lt;span style=&quot;background-color: initial;&quot;&gt;信息与通信技术&lt;/span&gt;&lt;/div&gt;&lt;div&gt;&lt;span style=&quot;background-color: initial;&quot;&gt;办公室&lt;/span&gt;&lt;/div&gt;&lt;/div&gt;&lt;div&gt;&lt;/div&gt;" style="rounded=0;whiteSpace=wrap;html=1;" vertex="1" parent="1">
          <mxGeometry x="-292" y="323" width="120" height="50" as="geometry" />
        </mxCell>
        <mxCell id="EW5mezHFkuSFeGB_xYiB-13" value="&lt;div&gt;&lt;div&gt;规划和部门研究咨询办公室&lt;br&gt;&lt;/div&gt;&lt;/div&gt;&lt;div&gt;&lt;/div&gt;" style="rounded=0;whiteSpace=wrap;html=1;" vertex="1" parent="1">
          <mxGeometry x="-292" y="389" width="120" height="50" as="geometry" />
        </mxCell>
        <mxCell id="EW5mezHFkuSFeGB_xYiB-14" value="&lt;div&gt;&lt;div&gt;内部控制办公室&lt;br&gt;&lt;/div&gt;&lt;/div&gt;&lt;div&gt;&lt;/div&gt;" style="rounded=0;whiteSpace=wrap;html=1;" vertex="1" parent="1">
          <mxGeometry x="-292" y="455" width="120" height="50" as="geometry" />
        </mxCell>
        <mxCell id="EW5mezHFkuSFeGB_xYiB-15" value="&lt;div&gt;&lt;div&gt;领土管理、紧急情况和灾害办公室&lt;br&gt;&lt;/div&gt;&lt;/div&gt;&lt;div&gt;&lt;/div&gt;" style="rounded=0;whiteSpace=wrap;html=1;" vertex="1" parent="1">
          <mxGeometry x="-292" y="521" width="120" height="50" as="geometry" />
        </mxCell>
        <mxCell id="EW5mezHFkuSFeGB_xYiB-16" value="&lt;div&gt;&lt;div&gt;通讯组&lt;br&gt;&lt;/div&gt;&lt;/div&gt;&lt;div&gt;&lt;/div&gt;" style="rounded=0;whiteSpace=wrap;html=1;" vertex="1" parent="1">
          <mxGeometry x="-292" y="587" width="120" height="50" as="geometry" />
        </mxCell>
        <mxCell id="EW5mezHFkuSFeGB_xYiB-17" value="&lt;div&gt;&lt;div&gt;合作与国际关系组&lt;br&gt;&lt;/div&gt;&lt;/div&gt;&lt;div&gt;&lt;/div&gt;" style="rounded=0;whiteSpace=wrap;html=1;" vertex="1" parent="1">
          <mxGeometry x="-292" y="653" width="120" height="50" as="geometry" />
        </mxCell>
        <mxCell id="EW5mezHFkuSFeGB_xYiB-18" value="促进和预防局" style="rounded=0;whiteSpace=wrap;html=1;" vertex="1" parent="1">
          <mxGeometry x="-54" y="125" width="120" height="50" as="geometry" />
        </mxCell>
        <mxCell id="EW5mezHFkuSFeGB_xYiB-20" value="流行病学和&lt;div&gt;人口统计学局&lt;/div&gt;" style="rounded=0;whiteSpace=wrap;html=1;" vertex="1" parent="1">
          <mxGeometry x="-54" y="191" width="120" height="50" as="geometry" />
        </mxCell>
        <mxCell id="EW5mezHFkuSFeGB_xYiB-21" value="药品和健康技术局" style="rounded=0;whiteSpace=wrap;html=1;" vertex="1" parent="1">
          <mxGeometry x="-54" y="257" width="120" height="50" as="geometry" />
        </mxCell>
        <mxCell id="EW5mezHFkuSFeGB_xYiB-22" value="卫生人才发展局" style="rounded=0;whiteSpace=wrap;html=1;" vertex="1" parent="1">
          <mxGeometry x="-54" y="323" width="120" height="50" as="geometry" />
        </mxCell>
        <mxCell id="EW5mezHFkuSFeGB_xYiB-23" value="服务提供和&lt;div&gt;初级保健局&lt;/div&gt;" style="rounded=0;whiteSpace=wrap;html=1;" vertex="1" parent="1">
          <mxGeometry x="-54" y="389" width="120" height="50" as="geometry" />
        </mxCell>
        <mxCell id="EW5mezHFkuSFeGB_xYiB-24" value="健康保险、职业风险和养老金运营监管局" style="rounded=0;whiteSpace=wrap;html=1;" vertex="1" parent="1">
          <mxGeometry x="189" y="125" width="120" height="50" as="geometry" />
        </mxCell>
        <mxCell id="EW5mezHFkuSFeGB_xYiB-25" value="健康保险福利、费用和费率监管局" style="rounded=0;whiteSpace=wrap;html=1;" vertex="1" parent="1">
          <mxGeometry x="189" y="191" width="120" height="50" as="geometry" />
        </mxCell>
        <mxCell id="EW5mezHFkuSFeGB_xYiB-26" value="部门融资局" style="rounded=0;whiteSpace=wrap;html=1;" vertex="1" parent="1">
          <mxGeometry x="189" y="257" width="120" height="50" as="geometry" />
        </mxCell>
        <mxCell id="EW5mezHFkuSFeGB_xYiB-27" value="运营管理分局" style="rounded=0;whiteSpace=wrap;html=1;" vertex="1" parent="1">
          <mxGeometry x="432" y="125" width="120" height="50" as="geometry" />
        </mxCell>
        <mxCell id="EW5mezHFkuSFeGB_xYiB-28" value="行政分局" style="rounded=0;whiteSpace=wrap;html=1;" vertex="1" parent="1">
          <mxGeometry x="432" y="191" width="120" height="50" as="geometry" />
        </mxCell>
        <mxCell id="EW5mezHFkuSFeGB_xYiB-29" value="财务处" style="rounded=0;whiteSpace=wrap;html=1;" vertex="1" parent="1">
          <mxGeometry x="432" y="257" width="120" height="50" as="geometry" />
        </mxCell>
        <mxCell id="EW5mezHFkuSFeGB_xYiB-30" value="人才管理分局" style="rounded=0;whiteSpace=wrap;html=1;" vertex="1" parent="1">
          <mxGeometry x="432" y="323" width="120" height="50" as="geometry" />
        </mxCell>
        <mxCell id="EW5mezHFkuSFeGB_xYiB-31" value="内部纪律控制办公室" style="rounded=0;whiteSpace=wrap;html=1;" vertex="1" parent="1">
          <mxGeometry x="432" y="389" width="120" height="50" as="geometry" />
        </mxCell>
        <mxCell id="EW5mezHFkuSFeGB_xYiB-32" value="国家与公民关系小组" style="rounded=0;whiteSpace=wrap;html=1;" vertex="1" parent="1">
          <mxGeometry x="432" y="455" width="120" height="50" as="geometry" />
        </mxCell>
        <mxCell id="EW5mezHFkuSFeGB_xYiB-33" value="管理强化小组" style="rounded=0;whiteSpace=wrap;html=1;" vertex="1" parent="1">
          <mxGeometry x="432" y="521" width="120" height="50" as="geometry" />
        </mxCell>
        <mxCell id="EW5mezHFkuSFeGB_xYiB-41" value="" style="group" vertex="1" connectable="0" parent="1">
          <mxGeometry x="675" y="125" width="120" height="380" as="geometry" />
        </mxCell>
        <mxCell id="EW5mezHFkuSFeGB_xYiB-34" value="卫生社会保障总体系统资源管理员 ‑ ADRES" style="rounded=0;whiteSpace=wrap;html=1;" vertex="1" parent="EW5mezHFkuSFeGB_xYiB-41">
          <mxGeometry width="120" height="50" as="geometry" />
        </mxCell>
        <mxCell id="EW5mezHFkuSFeGB_xYiB-36" value="美国国家癌症研究所 ‑ INC" style="rounded=0;whiteSpace=wrap;html=1;" vertex="1" parent="EW5mezHFkuSFeGB_xYiB-41">
          <mxGeometry y="66" width="120" height="50" as="geometry" />
        </mxCell>
        <mxCell id="EW5mezHFkuSFeGB_xYiB-37" value="美国国立卫生研究院 ‑ INS" style="rounded=0;whiteSpace=wrap;html=1;" vertex="1" parent="EW5mezHFkuSFeGB_xYiB-41">
          <mxGeometry y="132" width="120" height="50" as="geometry" />
        </mxCell>
        <mxCell id="EW5mezHFkuSFeGB_xYiB-38" value="国家卫生监督局" style="rounded=0;whiteSpace=wrap;html=1;" vertex="1" parent="EW5mezHFkuSFeGB_xYiB-41">
          <mxGeometry y="198" width="120" height="50" as="geometry" />
        </mxCell>
        <mxCell id="EW5mezHFkuSFeGB_xYiB-39" value="哥伦比亚国家铁路&lt;div&gt;社会被动基金&lt;/div&gt;" style="rounded=0;whiteSpace=wrap;html=1;" vertex="1" parent="EW5mezHFkuSFeGB_xYiB-41">
          <mxGeometry y="264" width="120" height="50" as="geometry" />
        </mxCell>
        <mxCell id="EW5mezHFkuSFeGB_xYiB-40" value="共和国国会&lt;div&gt;社会&lt;span style=&quot;background-color: initial;&quot;&gt;公积金&lt;/span&gt;&lt;/div&gt;" style="rounded=0;whiteSpace=wrap;html=1;" vertex="1" parent="EW5mezHFkuSFeGB_xYiB-41">
          <mxGeometry y="330" width="120" height="50" as="geometry" />
        </mxCell>
      </root>
    </mxGraphModel>
  </diagram>
</mxfile>
